<?xml version="1.0" standalone="no"?>
<!DOCTYPE svg PUBLIC "-//W3C//DTD SVG 20010904//EN"
 "http://www.w3.org/TR/2001/REC-SVG-20010904/DTD/svg10.dtd">
<svg version="1.0" xmlns="http://www.w3.org/2000/svg"
 width="716.000000pt" height="348.000000pt" viewBox="0 0 716.000000 348.000000"
 preserveAspectRatio="xMidYMid meet">

<g transform="translate(0.000000,348.000000) scale(0.100000,-0.100000)"
fill="#000000" stroke="none">
<path d="M1787 2573 c-4 -3 -7 -186 -7 -405 l0 -398 140 0 c123 0 140 -2 149
-18 7 -13 2 -27 -20 -56 -34 -47 -35 -57 -10 -80 19 -17 22 -17 66 15 44 32
47 32 73 17 15 -9 41 -19 59 -22 29 -7 32 -11 40 -59 8 -51 9 -52 46 -55 33
-3 37 -1 37 21 0 46 12 87 26 87 8 0 35 10 60 21 l45 22 43 -31 43 -31 23 24
22 23 -32 47 c-23 33 -29 50 -22 57 6 6 73 14 149 17 l138 6 0 400 0 400 -531
3 c-292 1 -534 -1 -537 -5z m1053 -93 l0 -80 -311 0 -312 0 -49 30 -48 30
-160 0 -160 0 0 50 0 50 520 0 520 0 0 -80z m-672 -65 l37 -25 317 0 318 0 0
-305 0 -305 -126 0 c-121 0 -125 1 -120 20 3 11 8 29 11 39 5 15 19 21 60 26
36 5 55 12 55 21 0 8 16 14 43 17 23 2 -176 4 -443 4 -267 0 -466 -2 -442 -4
26 -3 42 -9 42 -17 0 -9 19 -16 55 -21 41 -5 55 -11 60 -26 3 -10 8 -28 11
-39 5 -19 1 -20 -120 -20 l-126 0 0 330 0 330 166 0 c160 0 166 -1 202 -25z
m-14 -547 c8 -40 49 -94 86 -113 37 -19 123 -19 159 0 41 20 79 70 87 110 l6
35 110 0 c112 0 138 -13 50 -25 l-49 -6 -27 -70 -27 -70 25 -34 c50 -65 21
-96 -43 -46 l-39 31 -50 -25 c-27 -14 -57 -25 -65 -25 -15 0 -21 -20 -30 -90
-1 -8 -12 -16 -24 -18 -23 -3 -26 4 -38 71 -4 26 -11 37 -24 37 -10 0 -39 11
-66 24 l-48 25 -44 -31 c-40 -29 -45 -30 -60 -16 -15 15 -13 20 17 58 l33 41
-21 47 c-12 26 -24 57 -27 69 -5 17 -16 23 -55 28 -90 12 -65 25 48 25 l110 0
6 -32z m322 5 c-17 -69 -85 -123 -156 -123 -71 0 -139 54 -156 123 l-6 27 162
0 162 0 -6 -27z"/>
<path d="M2645 2504 c-8 -9 -15 -17 -15 -19 0 -2 7 -10 15 -19 20 -20 45 -10
45 19 0 29 -25 39 -45 19z m35 -19 c0 -8 -7 -15 -15 -15 -8 0 -15 7 -15 15 0
8 7 15 15 15 8 0 15 -7 15 -15z"/>
<path d="M2730 2505 c-18 -21 -4 -47 22 -43 29 4 35 34 10 47 -15 8 -23 7 -32
-4z m35 -14 c7 -12 -12 -24 -25 -16 -11 7 -4 25 10 25 5 0 11 -4 15 -9z"/>
<path d="M1978 2293 c50 -2 134 -2 185 0 50 1 9 3 -93 3 -102 0 -143 -2 -92
-3z"/>
<path d="M2560 2240 l0 -40 120 0 120 0 0 40 0 40 -120 0 -120 0 0 -40z m230
0 l0 -30 -110 0 -110 0 0 30 0 30 110 0 110 0 0 -30z"/>
<path d="M1910 2229 c-14 -4 58 -7 159 -8 101 -1 182 1 180 3 -8 8 -314 13
-339 5z"/>
<path d="M1900 2160 c0 -6 38 -10 95 -10 57 0 95 4 95 10 0 6 -38 10 -95 10
-57 0 -95 -4 -95 -10z"/>
<path d="M2115 2160 c3 -5 19 -10 36 -10 16 0 29 5 29 10 0 6 -16 10 -36 10
-21 0 -33 -4 -29 -10z"/>
<path d="M2560 2105 l0 -45 120 0 120 0 0 45 0 45 -120 0 -120 0 0 -45z m230
5 l0 -30 -110 0 -110 0 0 30 0 30 110 0 110 0 0 -30z"/>
<path d="M1960 2090 c0 -5 24 -10 54 -10 30 0 58 5 61 10 4 6 -17 10 -54 10
-34 0 -61 -4 -61 -10z"/>
<path d="M2130 2090 c0 -6 27 -10 60 -10 33 0 60 4 60 10 0 6 -27 10 -60 10
-33 0 -60 -4 -60 -10z"/>
<path d="M1893 2024 c6 -7 349 -5 356 1 2 3 -78 5 -179 5 -101 0 -181 -3 -177
-6z"/>
<path d="M2540 2010 c0 -6 51 -10 134 -10 79 0 137 4 141 10 4 6 -43 10 -134
10 -87 0 -141 -4 -141 -10z"/>
<path d="M3820 2046 l0 -437 87 3 c63 2 88 7 91 17 4 11 -6 12 -52 7 -105 -14
-96 -52 -96 405 l0 399 68 0 c99 0 156 -23 223 -89 74 -74 101 -142 107 -272
5 -112 -12 -194 -58 -274 -30 -52 -110 -135 -130 -135 -5 0 -10 -7 -10 -15 0
-27 28 -16 83 34 193 177 198 535 11 700 -59 52 -130 78 -238 87 l-86 7 0
-437z"/>
<path d="M4435 2468 c-10 -26 0 -533 10 -533 6 0 11 94 13 257 l2 257 133 3
c181 4 174 22 -11 26 -109 2 -144 0 -147 -10z"/>
<path d="M4890 2155 c0 -282 2 -325 15 -325 13 0 15 43 15 325 0 282 -2 325
-15 325 -13 0 -15 -43 -15 -325z"/>
<path d="M3226 2053 c-77 -230 -141 -424 -144 -430 -2 -8 4 -13 15 -13 19 0
55 100 234 653 17 53 35 97 39 97 5 0 12 -10 15 -22 4 -13 59 -182 123 -375
95 -290 119 -353 134 -353 10 0 18 3 18 8 0 15 -284 852 -289 852 -4 0 -69
-188 -145 -417z"/>
<path d="M4430 1750 l0 -140 155 0 c97 0 155 4 155 10 0 6 -53 10 -140 10
l-140 0 0 116 c0 107 1 116 20 121 32 9 23 23 -15 23 l-35 0 0 -140z"/>
<path d="M3320 1838 c0 -14 12 -59 41 -160 13 -44 25 -68 34 -68 19 0 19 3 -9
101 -13 46 -26 96 -30 112 -6 27 -36 39 -36 15z"/>
<path d="M4890 1680 l0 -70 165 0 c140 0 165 2 165 15 0 13 -23 15 -150 15
l-150 0 0 55 c0 42 -3 55 -15 55 -12 0 -15 -14 -15 -70z"/>
</g>
</svg>
